<svg id="Layer_1" data-name="Layer 1" xmlns="http://www.w3.org/2000/svg" viewBox="0 0 200 200"><defs><style>.cls-1{fill:#fff;}.cls-1,.cls-2,.cls-3{stroke:#000;stroke-linecap:round;stroke-linejoin:round;stroke-width:5.68px;}.cls-2,.cls-3{fill:none;}.cls-2{fill-rule:evenodd;}</style></defs><title>iconStein</title><circle class="cls-1" cx="100" cy="101" r="91"/><polygon class="cls-2" points="71.4 32.5 88.03 65.78 71.4 117.4 45.85 112.65 71.4 32.5"/><polygon class="cls-2" points="99.91 32.5 71.4 32.5 88.03 65.78 139.72 81.41 99.91 32.5"/><polygon class="cls-2" points="71.4 117.4 135.56 145.93 139.72 81.41 88.03 65.78 71.4 117.4"/><polyline class="cls-2" points="45.85 112.65 71.4 166.99 139.72 166.99 153.38 149.33 139.72 81.41"/><polygon class="cls-2" points="86.25 152.04 135.56 145.93 71.4 117.4 86.25 152.04"/><line class="cls-3" x1="86.25" y1="152.05" x2="71.4" y2="166.99"/><polyline class="cls-2" points="139.72 166.99 135.56 145.93 153.38 149.33"/></svg>